<svg version="1.1" xmlns="http://www.w3.org/2000/svg" xmlns:xlink="http://www.w3.org/1999/xlink" width="174.66968" height="183.29149" viewBox="0,0,174.66968,183.29149"><g transform="translate(-157.41883,-76.76405)"><g data-paper-data="{&quot;isPaintingLayer&quot;:true}" fill-rule="nonzero" stroke-linejoin="miter" stroke-miterlimit="10" stroke-dasharray="" stroke-dashoffset="0" style="mix-blend-mode: normal"><path d="M206.36432,165.42749c11.15007,8.56801 15.17553,22.03809 8.9911,30.08626c-6.18443,8.04818 -20.23683,7.62676 -31.3869,-0.94125c-11.15007,-8.56801 -15.17553,-22.03809 -8.9911,-30.08626c6.18443,-8.04818 20.23683,-7.62676 31.3869,0.94125z" fill="#00b6ff" stroke="#000000" stroke-width="5" stroke-linecap="butt"/><path d="M261.71038,195.65827v35.23747" fill="#ffde00" stroke="#000000" stroke-width="5" stroke-linecap="round"/><path d="M264.48877,193.36003c0,14.6783 -11.76542,26.57741 -26.27879,26.57741c-14.51337,0 -26.27879,-11.89911 -26.27879,-26.57741c0,-14.6783 11.76541,-26.57741 26.27879,-26.57741c14.51337,0 26.27879,11.89911 26.27879,26.57742z" fill="#ffde00" stroke="#000000" stroke-width="5" stroke-linecap="butt"/><path d="M274.86401,136.84376c0,19.95589 -10.29474,36.13334 -22.99394,36.13334c-12.69921,0 -22.99394,-16.17745 -22.99394,-36.13334c0,-19.95589 10.29474,-36.13334 22.99394,-36.13334c12.69921,0 22.99394,16.17745 22.99394,36.13334z" fill="#ffde00" stroke="#000000" stroke-width="5" stroke-linecap="butt"/><path d="M249.55767,136.02452c0,19.95589 -10.29474,36.13333 -22.99394,36.13333c-12.69921,0 -22.99394,-16.17744 -22.99394,-36.13333c0,-19.95589 10.29474,-36.13334 22.99394,-36.13334c12.69921,0 22.99394,16.17745 22.99394,36.13334z" fill="#ffde00" stroke="#000000" stroke-width="5" stroke-linecap="butt"/><path d="M329.58851,161.10879c0,10.39025 -26.87328,18.81322 -60.02315,18.81322c-33.14987,0 -60.02314,-8.42297 -60.02314,-18.81322c0,-10.39025 26.87327,-18.81322 60.02314,-18.81322c33.14987,0 60.02315,8.42297 60.02315,18.81322z" fill="#ffde00" stroke="#000000" stroke-width="5" stroke-linecap="butt"/><path d="M217.51425,166.46249c-2.58837,0 -3.60035,-1.57639 -3.99601,-2.80903c-2.92809,-2.81694 -5.63683,-5.31952 -4.00256,-10.47516c0.46761,-1.47515 2.53128,-1.78641 3.72181,-2.77502c4.05665,-3.36864 6.91665,-5.10032 12.2194,-6.15675c0.73209,0.02803 1.44675,-0.12101 2.15663,-0.3244c0.06741,-0.08666 0.13688,-0.17204 0.20852,-0.25604c1.00154,-1.17435 2.91153,-1.02621 4.35601,-1.56991c1.45134,-0.54629 2.73026,-1.05399 3.98874,-1.47596c0.04084,-0.06222 0.08253,-0.12399 0.12511,-0.18528c0.80109,-1.15311 2.40481,-1.4958 3.73288,-1.9515c1.17959,-0.40475 2.40077,-0.59748 3.64526,-0.65566c0.01223,-0.07873 0.0272,-0.15841 0.04508,-0.23899c-1.20753,-1.03082 -2.43366,-2.03527 -2.87291,-3.49622c-0.77695,-2.5842 -2.55745,-5.90356 -0.91379,-8.04368c0.87874,-1.14415 2.38452,-1.25258 3.9887,-1.11228c-0.54175,-0.44813 -1.08107,-0.8858 -1.61982,-1.31597c-0.67288,-0.14054 -1.18376,-0.63037 -1.49049,-0.57634c0,0 -0.25,0 -0.25,-0.25c0,-0.25 0.25,-0.25 0.25,-0.25c0.05374,0.00483 0.10395,0.01175 0.15111,0.02046c-2.048,-1.59507 -4.10941,-3.11779 -6.28457,-4.73189c0,0 -3.4,-2.55 -0.85,-5.95c2.55,-3.4 5.95,-0.85 5.95,-0.85c1.47371,1.12054 3.21505,1.8505 4.71298,2.93845c1.59044,1.15512 2.43036,2.58141 3.88306,3.82057c2.05214,1.75048 4.90064,3.47335 6.39853,5.80128c1.11082,1.72638 3.11586,3.44337 2.82036,5.47487c-0.51918,3.56934 -2.61235,5.08078 -5.10468,5.59077c0.60806,0.84783 1.19428,1.70913 1.76962,2.57867c1.80818,-1.13729 3.73745,-2.06072 5.84208,-1.96663c1.20082,0.05369 2.41362,0.51847 3.53882,1.19825c0.34503,-1.03775 1.54408,-3.57876 4.88224,-2.91113c4.16747,0.83349 3.33397,5.00096 3.33397,5.00096c-0.35091,1.68541 -0.52858,3.41746 -0.51471,5.13896v2.98622c0,2.34721 -1.90279,4.25 -4.25,4.25c-0.89346,0 -1.72253,-0.2757 -2.40677,-0.74667c-1.67607,2.18226 -4.66156,2.76744 -7.32762,3.11497c-5.65969,0.73777 -11.88465,-1.2622 -17.49219,-1.78554c-0.27672,-0.02582 -0.58196,-0.05537 -0.90783,-0.08596c-2.33301,0.3917 -4.64943,0.76848 -6.86681,1.2124l-2.90017,0.58004c-0.29611,0.06531 -0.60381,0.09974 -0.91955,0.09974c-0.78397,0 -1.51835,-0.21227 -2.14882,-0.58246c-1.5417,0.30212 -2.69781,0.43187 -4.13043,1.23195c-1.16685,0.65166 -1.92807,1.88306 -2.94127,2.74952c0.51932,0.57221 0.95684,1.36946 1.47531,1.88794l1.2448,3.60245c0,0 0,4.25 -4.25,4.25z" fill="#ffde00" stroke="none" stroke-width="0" stroke-linecap="butt"/><path d="M220.50048,214.77011l-0.59725,35.83471" fill="#ffde00" stroke="#000000" stroke-width="5" stroke-linecap="round"/><path d="M249.16824,252.39656l0.59725,-32.84849" fill="#ffde00" stroke="#000000" stroke-width="5" stroke-linecap="round"/><path d="M207.95833,188.49129l-1.19449,41.80717" fill="#ffde00" stroke="#000000" stroke-width="5" stroke-linecap="round"/><path d="M214.91744,135.12859c0,2.30895 -0.93589,4.18072 -2.09036,4.18072c-1.15447,0 -2.09036,-1.87177 -2.09036,-4.18072c0,-2.30895 0.93589,-4.18072 2.09036,-4.18072c1.15447,0 2.09036,1.87177 2.09036,4.18072z" fill="#ffde00" stroke="#000000" stroke-width="5" stroke-linecap="butt"/><path d="M268.29429,135.94789c0,2.30894 -0.93588,4.18072 -2.09035,4.18072c-1.15448,0 -2.09036,-1.87178 -2.09036,-4.18072c0,-2.30894 0.93588,-4.18072 2.09036,-4.18072c1.15447,0 2.09035,1.87177 2.09035,4.18072z" fill="#ffde00" stroke="#000000" stroke-width="5" stroke-linecap="butt"/><path d="M328.39403,162.6019l-99.14271,-0.59725" fill="#ffde00" stroke="#000000" stroke-width="5" stroke-linecap="round"/><path d="M214.69305,186.86107l47.47651,0.76575" fill="none" stroke="#ab6300" stroke-width="5" stroke-linecap="round"/><path d="M214.69305,199.49595l45.94501,0.76575" fill="none" stroke="#ab6300" stroke-width="5" stroke-linecap="round"/><path d="M238.63132,247.28715c-0.2411,-0.35351 -0.40276,-0.82758 -0.40276,-1.46331c0,-2.5 2.5,-2.5 2.5,-2.5c2.82305,0.01511 5.77592,-0.32449 8.514,-1.05577c1.17419,-0.3136 2.23169,-1.45149 3.42856,-1.2404c6.74435,1.18948 4.14769,4.96037 3.55307,9.33963c-0.33651,2.47833 -0.31977,5.09786 -2.19045,7.12637c-3.43174,3.72129 -11.25747,3.34066 -13.92836,-0.83013c-1.64269,-2.56518 -1.10927,-6.48796 -1.47406,-9.37639zM243.66548,248.14443c0.0246,2.93253 -0.27527,7.05003 3.03373,6.67049c0.06974,-0.008 3.18288,-0.14041 3.69666,-0.75141c1.95016,-2.31918 -0.13305,-6.12621 2.21069,-8.38164c0.58919,-0.56699 -1.23262,1.15954 -2.014,1.4005c-0.93625,0.28871 -1.94395,0.25429 -2.90686,0.4352c-1.3305,0.24998 -2.67236,0.47765 -4.02022,0.62686z" fill="#000000" stroke="none" stroke-width="0.5" stroke-linecap="butt"/><path d="M247.67641,247.46844c0.96291,-0.18091 2.01036,-0.13701 2.94661,-0.42572c0.78139,-0.24096 2.60765,-1.96363 2.01846,-1.39664c-2.34374,2.25543 -0.27066,6.14167 -2.22082,8.46085c-0.51378,0.611 -3.66712,0.74755 -3.73686,0.75555c-3.309,0.37954 -3.03923,-3.80622 -3.06383,-6.73875c1.34786,-0.14921 2.72594,-0.40531 4.05644,-0.65529z" data-paper-data="{&quot;noHover&quot;:false,&quot;origItem&quot;:[&quot;Path&quot;,{&quot;applyMatrix&quot;:true,&quot;segments&quot;:[[[487.33096,496.28886],[2.69572,-0.29842],[0.0492,5.86506]],[[493.39842,509.62984],[-6.61799,0.75908],[0.13947,-0.016]],[[500.79175,508.12702],[-1.02756,1.22199],[3.90033,-4.63835]],[[505.21312,491.36374],[-4.68747,4.51086],[1.17838,-1.13398]],[[501.18511,494.16473],[1.56277,-0.48191],[-1.8725,0.57742]],[[495.3714,495.03514],[1.92581,-0.36183],[-2.661,0.49996]]],&quot;closed&quot;:true}]}" fill="#ab6300" stroke="none" stroke-width="0.5" stroke-linecap="butt"/><path d="M227.55271,244.48182c0.36085,0.65411 0.36084,1.34202 0.36084,1.34202c-0.02613,2.28516 -0.62341,4.54103 -1.22655,6.74532c-0.2841,1.03828 -0.02894,2.2476 -0.56888,3.17884c-2.6231,4.52413 -9.71256,4.94047 -13.46245,1.52191c-2.71861,-2.4784 -3.01187,-6.12349 -2.75987,-9.5317c0.1045,-1.4134 -0.41099,-3.15841 0.52948,-4.21866c2.55148,-2.87643 9.65081,-1.72722 13.07389,-1.72722l2.13784,0.45752c0,0 1.87601,0.469 1.91569,2.23197zM222.87297,246.79441c-2.3635,0.01487 -4.75276,0.10142 -7.10872,-0.0208c-0.46907,-0.02434 -1.08367,-0.52606 -1.39794,-0.17699c-0.28066,0.31174 0.46988,0.72638 0.52949,1.14159c0.11855,0.82584 -0.04699,1.66959 -0.00629,2.5029c0.06159,1.26085 0.04246,2.38007 1.07517,3.28041c0.3837,0.33452 0.89703,0.50267 1.38816,0.63653c3.53418,0.96329 3.74665,0.0552 4.49001,-2.82753c0.38582,-1.49617 0.88464,-3.00296 1.03012,-4.53611z" fill="#000000" stroke="none" stroke-width="0.5" stroke-linecap="butt"/><path d="M221.8913,251.34287c-0.74336,2.88273 -1.02029,3.82584 -4.55446,2.86255c-0.49113,-0.13386 -1.02124,-0.31164 -1.40494,-0.64616c-1.0327,-0.90034 -1.03068,-2.06081 -1.09226,-3.32166c-0.0407,-0.83331 0.13469,-1.70351 0.01613,-2.52935c-0.05961,-0.41521 -0.80683,-0.83385 -0.52616,-1.14559c0.31428,-0.34907 0.93539,0.14674 1.40446,0.17108c2.35596,0.12222 4.81323,0.04281 7.17673,0.02794c-0.14549,1.53315 -0.63367,3.08501 -1.01949,4.58118z" data-paper-data="{&quot;noHover&quot;:false,&quot;origItem&quot;:[&quot;Path&quot;,{&quot;applyMatrix&quot;:true,&quot;segments&quot;:[[[445.74594,493.58881],[-0.29098,3.06631],[-4.72699,0.02974]],[[431.5285,493.54721],[4.71193,0.24445],[-0.93814,-0.04867]],[[428.73261,493.19323],[0.62855,-0.69814],[-0.56133,0.62348]],[[429.79159,495.47642],[-0.11921,-0.83043],[0.23711,1.65167]],[[429.77901,500.48223],[-0.0814,-1.66662],[0.12317,2.5217]],[[431.92935,507.04304],[-2.06541,-1.80067],[0.7674,0.66904]],[[434.70568,508.31611],[-0.98226,-0.26773],[7.06836,1.92658]],[[443.68569,502.66104],[-1.48672,5.76546],[0.77163,-2.99234]]],&quot;closed&quot;:true}]}" fill="#ab6300" stroke="none" stroke-width="0.5" stroke-linecap="butt"/><path d="M220.50166,243.41473c-1.07155,0.93559 -2.82262,-0.36679 -4.24099,-0.47531c-2.87106,-0.21965 -5.65374,0.73206 -7.08207,-3.51705c-0.42589,-1.26698 1.24237,-2.38311 1.63986,-3.65928c0.27768,-0.89153 0.24386,-3.19345 0.22981,-4.41944c-0.04883,-0.38342 0.00171,-0.74512 0.0708,-1.0245c0.07088,-0.31518 0.20906,-0.7127 0.47844,-1.06474l1.38046,-2.4789c2.41353,-1.15213 4.44805,-3.45123 7.10897,-3.71955c5.28701,-0.53313 7.25419,4.26678 6.65925,8.52407c-0.10388,0.74339 -1.03184,1.36513 -0.83773,2.09021c0.22363,0.83536 1.67749,0.94964 1.8768,1.79114c0.80256,3.38858 -0.63553,4.70091 -2.20596,7.1547c0,0 -1.38675,2.08013 -3.46688,0.69338c-0.37357,-0.24905 -0.63533,-0.52047 -0.81338,-0.79818c-0.23136,0.33635 -0.4973,0.64145 -0.79738,0.90345zM215.03246,238.00949c-0.05058,-0.0776 -0.10042,-0.15602 -0.14939,-0.23521c-0.11365,0.12023 -0.23741,0.23663 -0.37214,0.34892c0.0528,-0.02687 0.1016,-0.04613 0.14084,-0.05233c0.12922,-0.02042 0.25615,-0.0413 0.3807,-0.06137z" fill="#ffe3bb" stroke="none" stroke-width="0.5" stroke-linecap="butt"/><path d="M241.68516,238.39769c-0.10118,-1.21445 0.51284,-2.38425 0.8401,-3.55814c0.10815,-0.38793 0.15961,-0.82476 0.20616,-1.26766c-0.55257,-0.35852 -1.01135,-0.79485 -1.27168,-1.3958c-1.36439,-3.14969 1.9888,-7.64279 4.87801,-8.32487c1.48847,-0.35139 3.10411,0.35872 4.46474,1.05707c1.79173,0.91962 4.22016,4.35726 4.29519,6.3663c0.0737,1.97367 -2.21014,3.48779 -2.29927,5.46082c-0.10066,2.22822 1.62023,4.86951 0.32259,6.68367c-0.91461,1.27867 -2.82667,1.37698 -4.24001,2.06546c0,0 -1.29101,0.48413 -2.31504,-0.22545c-0.03128,0.00116 -0.0627,0.00174 -0.09427,0.00174c-0.99801,0 -1.85943,-0.58479 -2.26029,-1.43041l-1.1244,-2.24881c-0.46728,-1.06131 -1.30555,-2.02831 -1.40183,-3.18393z" fill="#ffe3bb" stroke="none" stroke-width="0.5" stroke-linecap="butt"/><path d="M251.46237,86.26995c-6.9325,-1.52988 -12.92055,-4.53014 -20.18345,-4.5059c-6.00694,-0.00849 -10.70459,1.5971 -16.24538,3.59543c-3.95261,1.42554 -8.91063,2.41056 -12.35026,5.05442c-2.32904,1.79022 -3.58634,4.21973 -4.9951,6.68996c-4.75054,8.32996 -8.03662,16.26172 -10.32986,25.60984c-1.70818,4.62337 -2.05185,9.21387 -3.20758,13.9566c-1.38277,5.67435 -3.70728,11.0541 -5.75029,16.40652c-1.516,3.97172 -1.82285,8.34911 -3.76653,12.29974c-0.63508,1.29084 -1.36857,2.51693 -2.1926,3.6717c0.20861,-0.05509 0.41742,-0.10942 0.62647,-0.16282c4.30676,-1.10021 8.64919,-2.01114 11.80702,-5.51923c0.13109,-0.14564 4.6929,-6.19616 4.96434,-6.63774c1.20687,-1.96341 1.47673,-4.43389 2.70687,-6.38216c1.00756,-1.59575 1.7837,-4.05908 3.62311,-4.33026c1.67113,-0.24637 2.65764,2.12898 3.97328,3.21035c1.60609,1.32011 3.27495,2.56211 4.98085,3.74537c-0.23001,-0.69797 -0.41378,-1.30376 -0.51087,-1.60166c-1.75867,-5.39569 -2.80038,-12.59668 -1.70932,-18.23625c1.17429,-6.0698 5.3327,-12.93105 10.30921,-16.50854c2.06888,-1.48726 3.89079,-2.18063 5.9326,-2.81103c-0.62118,-0.97526 -1.15295,-2.00929 -1.73645,-2.85082c-0.74303,-1.07159 -3.76563,-4.69443 -4.51317,-6.29515c-0.86392,-1.84993 -2.82407,-3.78154 -2.19196,-5.72689c0.39766,-1.22383 7.44928,-2.37197 8.5797,-2.6291c9.67049,-2.19976 19.70721,-5.02886 29.64907,-3.77322c0,0 2.42765,0.31009 2.12419,2.79078c-0.00458,0.03742 -0.00964,0.07421 -0.01517,0.11038c0.00673,0.03557 0.00948,0.05523 0.00948,0.05523c0.19554,1.39924 0.4167,2.77654 0.61766,4.15064c2.94956,-1.22226 5.75136,-2.60546 8.7154,-3.84052c0,-0.31931 0,-0.58892 0,-0.78581c0,0 0,-1.6159 1.27135,-2.24944c-0.44453,-0.55751 -0.77695,-1.42426 -0.20155,-2.60022c0.08062,-0.16477 0.16718,-0.31132 0.25837,-0.44145c-2.64634,-2.45898 -6.81215,-2.70019 -10.24944,-3.45874zM223.46099,117.73099c-2.57187,0.78198 -5.14093,1.32286 -7.38767,2.95054c-7.7859,5.64059 -9.40268,15.5781 -7.94395,24.51152c0.54482,3.33655 2.45925,6.24292 3.09312,9.40529c0.33929,1.69273 1.57573,4.01812 0.31835,5.17341c-2.61774,2.40517 -6.47091,-0.8481 -8.3991,-2.13657c-0.82879,-0.56554 -5.08488,-3.29246 -6.27898,-4.64556c-0.24579,0.94513 -0.68945,1.83851 -1.07682,2.73548c-1.71685,3.97541 -4.45277,7.93585 -7.36986,11.09154c-4.71655,5.10235 -11.08907,6.02741 -17.36815,7.73833c-2.04319,0.55673 -4.01925,1.17981 -6.05426,1.65667c-0.58059,0.40496 -1.19281,0.72329 -1.87291,0.77125c-0.14544,0.01026 -0.29037,0.01386 -0.43483,0.01155l0.01621,0.09935l-2.38909,0.40688c-0.14513,0.02742 -0.29477,0.04176 -0.44768,0.04176c-1.35118,0 -2.44654,-1.11929 -2.44654,-2.5c0,-1.1246 0.72668,-2.07576 1.72639,-2.38994l2.38103,-0.81102l0.02855,0.0875l0.15537,-0.14207c0.0811,-0.01394 0.16214,-0.02814 0.24312,-0.0426c0.51705,-0.32544 1.27325,-0.43209 1.76743,-0.81116c2.74985,-2.10929 5.00319,-4.63771 6.53313,-7.78535c1.84081,-3.78719 2.11427,-7.92209 3.53713,-11.74851c1.94476,-5.22994 4.2527,-10.40845 5.61095,-15.93423c1.18776,-4.83211 1.56246,-9.51508 3.28456,-14.23789c2.36499,-9.69356 5.83829,-18.00287 10.7696,-26.63291c1.76415,-3.08736 3.46313,-6.01649 6.36614,-8.23654c3.85042,-2.94457 9.20104,-4.13274 13.61831,-5.72582c6.04391,-2.17973 11.29888,-3.85941 17.83836,-3.86782c7.66938,0.02236 13.89911,3.02982 21.20394,4.61585c5.33514,1.15837 10.30889,1.80064 13.97871,6.27341l0.63105,0.62322c0,0 0.7295,0.74544 0.76735,1.75224c2.69361,0.34105 5.54866,-0.27382 8.36024,0.00328c1.71328,0.16885 3.91659,-0.42065 5.09432,0.86199c1.08819,1.18512 0.21748,3.24779 0.17088,4.87221c-0.08011,2.79291 -0.44877,7.86856 -2.44512,10.80299c3.58516,0.45495 7.10398,1.23593 10.72631,1.77318l0.18853,0.13202l0.02303,-0.07061l2.38103,0.81102c0.99972,0.31418 1.7264,1.26534 1.7264,2.38994c0,0.94657 -0.51482,1.77027 -1.27396,2.19468l-1.86004,1.08611c0.24216,0.05728 0.48379,0.1168 0.72476,0.17925l0.20376,0.19354l0.04154,-0.0849l2.38715,1.21965c0.82754,0.40086 1.39982,1.26228 1.39982,2.26029c0,1.16178 -0.77552,2.13847 -1.82642,2.419l-2.78831,0.81406l-0.00725,-0.02593c-0.04215,0.02057 -0.08442,0.04087 -0.12685,0.06092c-2.94946,1.39356 -7.53327,0.88906 -10.68199,0.89045c-4.98373,0.00221 -9.90574,0.1024 -14.86983,-0.42906c-4.92591,-0.52737 -9.79991,-1.65792 -14.75056,-1.64406h-0.40576c0,0 -1.57729,0 -2.19896,-1.29414c-2.29084,-0.57032 -4.5406,-0.44863 -6.98271,-0.80513c-3.43196,-0.50101 -6.76238,-1.49668 -10.19327,-2.081l-1.22083,0.03401c0,0 -0.41129,0 -0.8966,-0.17231c-1.30633,0.22289 -2.85403,0.46444 -4.1126,0.5485c-0.51597,0.55696 -1.18569,0.76226 -1.18569,0.76226zM241.77579,113.69182c3.16415,0.46188 5.88286,0.34108 8.94169,1.34602c0,0 0.60352,0.20557 1.09247,0.72153c4.74055,0.15486 9.39385,1.14118 14.12305,1.65237c4.78625,0.51736 9.53865,0.39799 14.3448,0.40019c0.92809,0.00043 1.85743,-0.01112 2.78607,-0.04225c-2.19202,-0.74176 -4.36285,-1.61098 -6.85434,-2.76604l4.47758,-2.96245c0.18457,-0.03144 0.37329,-0.06789 0.56543,-0.10794c-2.4565,-0.41391 -4.92422,-0.73682 -7.46687,-0.73082c0,0 -2.44654,0 -2.44654,-2.5c0,-0.14928 0.00872,-0.28965 0.02513,-0.42163c-0.54416,-0.31312 -1.16357,-0.65249 -1.987,-0.93254c-2.36888,-0.80563 -5.18903,-1.24946 -7.66205,-1.55526l-1.31958,0.01931c0,0 -2.44654,0 -2.44654,-2.5c0,-0.44442 0.07731,-0.80984 0.20445,-1.11029c-1.95319,0.88477 -3.89761,1.78073 -5.91805,2.58345c0.03503,0.61025 0.05528,1.22434 0.05695,1.84384v2.48775c0,0 0,2.5 -2.44654,2.5c-0.75473,0 -1.27663,-0.23791 -1.63753,-0.56695c-0.70247,0.98158 -2.0143,0.98158 -2.0143,0.98158h-0.40576c-2.44342,-0.00576 -4.65698,0.47782 -6.81749,1.1533c0.93077,0.19416 1.8645,0.36956 2.80497,0.50684zM246.18208,103.3123c0,-0.96188 0.36217,-1.55368 0.80782,-1.91778c-0.18757,-1.35763 -0.41379,-2.71231 -0.62096,-4.08127c-7.03436,-0.44271 -13.53844,1.57043 -20.49445,2.66489c-1.85946,0.29257 -3.68129,0.796 -5.518,1.21237c-1.11733,0.25329 -2.22508,0.67753 -3.35603,0.81308c1.8822,1.76036 3.93254,5.38914 4.41908,6.09627c0.91822,1.33455 1.15832,3.83733 2.74585,4.00994c0.08414,0.00915 4.7294,-0.78091 5.2603,-0.87069c5.715,-1.67023 10.298,-4.19479 16.36262,-4.20745h0.40576c0,0 0.59971,0 1.20529,0.3034v-0.70578c0.00119,-0.38286 -0.0061,-0.76385 -0.02065,-1.14332c-0.60262,-0.31697 -1.19662,-0.94183 -1.19662,-2.17368zM270.89041,102.59334c0.8333,0.28428 2.6271,1.84662 3.86424,1.36807c1.13859,-0.44043 1.3871,-4.85569 1.47523,-5.54183c0.14191,-1.10479 0.0605,-2.26005 0.40576,-3.317c0.14152,-0.43322 1.42331,-0.85766 0.9824,-0.93254c-0.53685,-0.09117 -0.86104,0.77037 -1.39782,0.862c-3.4159,0.58311 -7.50922,0.48799 -10.99966,-0.50327c0.05617,0.28908 0.05616,0.49102 0.05616,0.49102c0,0.72837 0,1.45675 0,2.18512c0.05214,0.30755 0.04638,0.58458 0,0.83294c0,0.23785 0,0.47571 0,0.71356v2.5124c1.91769,0.31849 3.87037,0.73478 5.61369,1.32952z" fill="#000000" stroke="none" stroke-width="0.5" stroke-linecap="butt"/><path d="M238.92132,113.19209c2.16051,-0.67548 4.47313,-1.17276 6.91655,-1.167l0.30665,0.01332c0,0 1.31153,-0.00271 2.014,-0.98429c0.36091,0.32904 0.88314,0.57002 1.63787,0.57002c2.44654,0 2.44629,-2.51221 2.44629,-2.51221l0.00312,-2.50072c-0.00167,-0.6195 -0.01827,-1.24109 -0.0533,-1.85134c2.02044,-0.80272 3.99061,-1.72005 5.9438,-2.60482c-0.12714,0.30045 -0.16642,0.75828 -0.16642,1.20269c0,2.5 2.4184,2.40508 2.4184,2.40508l1.33506,-0.01917c2.47302,0.3058 5.33265,0.78377 7.70153,1.58941c0.82343,0.28005 1.44452,0.62634 1.98867,0.93946c-0.0164,0.13199 -0.02484,0.27431 -0.02484,0.42359c0,2.5 2.44672,2.51093 2.44672,2.51093c2.54266,-0.00599 5.01037,0.317 7.46687,0.73091c-0.19214,0.04005 -0.38089,0.07691 -0.56547,0.10834l-4.47981,2.97292c2.49149,1.15506 4.66198,2.02527 6.854,2.76703c-0.92864,0.03113 -1.85881,0.04485 -2.7869,0.04442c-4.80615,-0.0022 -9.57724,0.14005 -14.36348,-0.37731c-4.7292,-0.51119 -9.45259,-1.51268 -14.19313,-1.66754c-0.48895,-0.51596 -1.09499,-0.72608 -1.09499,-0.72608c-3.05884,-1.00494 -5.78172,-0.89667 -8.94587,-1.35855c-0.94048,-0.13729 -1.87458,-0.31495 -2.80535,-0.50911z" data-paper-data="{&quot;noHover&quot;:false,&quot;origItem&quot;:[&quot;Path&quot;,{&quot;applyMatrix&quot;:true,&quot;selected&quot;:true,&quot;segments&quot;:[[[241.77579,113.69182],[-0.94047,-0.13729],[3.16415,0.46188],7],[[250.71748,115.03784],[-3.05884,-1.00494],[0,0],7],[[251.80995,115.75937],[-0.48895,-0.51596],[4.74055,0.15486],7],[[265.933,117.41173],[-4.7292,-0.51119],[4.78625,0.51736],7],[[280.2778,117.81192],[-4.80615,-0.0022],[0.92809,0.00043],7],[[283.06387,117.76967],[-0.92864,0.03113],[-2.19202,-0.74176],7],[[276.20953,115.00363],[2.49149,1.15506],[0,0],7],[[280.68711,112.04119],[0,0],[0.18457,-0.03144],7],[[281.25253,111.93325],[-0.19214,0.04005],[-2.4565,-0.41391],7],[[273.78566,111.20242],[2.54266,-0.00599],[0,0],7],[[271.33912,108.70242],[0,2.5],[0,-0.14928],7],[[271.36425,108.28079],[-0.01641,0.13199],[-0.54416,-0.31312],7],[[269.37725,107.34825],[0.82343,0.28005],[-2.36888,-0.80563],7],[[261.7152,105.79299],[2.47301,0.3058],[0,0],7],[[260.39562,105.8123],[0,0],[0,0],7],[[257.94908,103.3123],[0,2.5],[0,-0.44442],7],[[258.15353,102.20201],[-0.12713,0.30045],[-1.95319,0.88477],7],[[252.23548,104.78546],[2.02043,-0.80272],[0.03503,0.61025],7],[[252.29243,106.6293],[-0.00167,-0.6195],[0,0],7],[[252.29243,109.11705],[0,0],[0,0],7],[[249.84589,111.61705],[2.44654,0],[-0.75473,0],7],[[248.20836,111.0501],[0.36091,0.32904],[-0.70247,0.98158],7],[[246.19407,112.03167],[0,0],[0,0],7],[[245.78831,112.03167],[0,0],[-2.44342,-0.00576],7],[[238.97082,113.18497],[2.16051,-0.67548],[0.93077,0.19416],7]],&quot;closed&quot;:true}]}" fill="#ffde00" stroke="none" stroke-width="0.5" stroke-linecap="butt"/><path d="M261.75086,89.69747c-0.09119,0.13013 -0.17765,0.27681 -0.25827,0.44158c-0.5754,1.17596 -0.2418,2.04426 0.20273,2.60177c-1.27135,0.63354 -1.27076,2.25026 -1.27076,2.25026c0,0.19689 -0.08221,0.52343 -0.08221,0.84274c-2.96405,1.23507 -5.76467,2.61991 -8.71423,3.84217c-0.20095,-1.3741 -0.41955,-2.74822 -0.61508,-4.14746c0,0 -0.00272,-0.01963 -0.00944,-0.0552c0.00553,-0.03616 0.01064,-0.07289 0.01522,-0.11031c0.30346,-2.48069 -2.12155,-2.78802 -2.12155,-2.78802c-9.94186,-1.25564 -19.94756,1.58742 -29.61805,3.78718c-1.13041,0.25714 -8.16655,1.40403 -8.56421,2.62786c-0.63211,1.94535 1.30645,3.77933 2.17037,5.62926c0.74754,1.60072 3.78118,5.22259 4.5242,6.29418c0.5835,0.84153 1.10534,1.97477 1.72652,2.95003c-2.04181,0.6304 -3.8348,1.3203 -5.90368,2.80757c-4.97652,3.57749 -9.11117,10.36905 -10.28546,16.43885c-1.09106,5.63958 -0.07161,12.81942 1.68706,18.21511c0.0971,0.29789 0.23933,0.99464 0.46934,1.69261c-1.70589,-1.18326 -3.38384,-2.43038 -4.98992,-3.75049c-1.31564,-1.08138 -2.30879,-3.46237 -3.97992,-3.21601c-1.83941,0.27117 -2.54488,2.66376 -3.55244,4.25951c-1.23014,1.94828 -1.50225,4.41667 -2.70912,6.38008c-0.27143,0.44158 -4.8984,6.56796 -5.02949,6.7136c-3.15784,3.50808 -7.50349,4.41603 -11.81025,5.51624c-0.20905,0.0534 -0.41805,0.10754 -0.62665,0.16263c0.82402,-1.15476 1.55686,-2.38153 2.19195,-3.67237c1.94368,-3.95063 2.24627,-8.33321 3.76227,-12.30493c2.04301,-5.35242 4.36088,-10.74508 5.74365,-16.41943c1.15574,-4.74273 1.49692,-9.35393 3.2051,-13.9773c2.29323,-9.34811 5.60086,-17.31661 10.35139,-25.64657c1.40876,-2.47023 2.6753,-4.90474 5.00434,-6.69495c3.43962,-2.64386 8.41412,-3.63258 12.36673,-5.05812c5.54079,-1.99832 10.25646,-3.60154 16.2634,-3.59304c7.26291,-0.02424 13.26848,2.986 20.20098,4.51588c3.43729,0.75855 7.60915,1.0061 10.25549,3.46508z" data-paper-data="{&quot;noHover&quot;:false,&quot;origItem&quot;:[&quot;Path&quot;,{&quot;applyMatrix&quot;:true,&quot;selected&quot;:true,&quot;segments&quot;:[[[251.46237,86.26995],[3.43729,0.75855],[-6.9325,-1.52988],7],[[231.27892,81.76405],[7.26291,-0.02424],[-6.00694,-0.00849],7],[[215.03354,85.35948],[5.54079,-1.99832],[-3.95261,1.42554],7],[[202.68328,90.4139],[3.43962,-2.64386],[-2.32904,1.79022],7],[[197.68818,97.10386],[1.40876,-2.47023],[-4.75054,8.32996],7],[[187.35833,122.7137],[2.29323,-9.34811],[-1.70818,4.62337],7],[[184.15074,136.6703],[1.15574,-4.74273],[-1.38277,5.67435],7],[[178.40045,153.07683],[2.04301,-5.35242],[-1.516,3.97172],7],[[174.63392,165.37657],[1.94368,-3.95063],[-0.63508,1.29084],7],[[172.44133,169.04826],[0.82403,-1.15476],[0.20861,-0.05509],7],[[173.0678,168.88544],[-0.20906,0.0534],[4.30676,-1.10021],7],[[184.87482,163.36621],[-3.15784,3.50808],[0.13109,-0.14564],7],[[189.83916,156.72847],[-0.27143,0.44158],[1.20687,-1.96341],7],[[192.54603,150.34631],[-1.23014,1.94827],[1.00756,-1.59575],7],[[196.16914,146.01605],[-1.83941,0.27117],[1.67113,-0.24637],7],[[200.14242,149.22641],[-1.31564,-1.08138],[1.60609,1.32011],7],[[205.12327,152.97178],[-1.70589,-1.18326],[-0.23001,-0.69797],7],[[204.6124,151.37012],[0.09709,0.2979],[-1.75867,-5.39569],7],[[202.90307,133.13386],[-1.09106,5.63957],[1.17429,-6.0698],7],[[213.21229,116.62532],[-4.97652,3.57749],[2.06888,-1.48726],7],[[219.14489,113.81429],[-2.0418,0.6304],[-0.62118,-0.97526],7],[[217.40843,110.96347],[0.5835,0.84153],[-0.74303,-1.07159],7],[[212.89526,104.66832],[0.74754,1.60072],[-0.86392,-1.84993],7],[[210.7033,98.94143],[-0.63211,1.94535],[0.39766,-1.22383],7],[[219.283,96.31233],[-1.13042,0.25714],[9.67049,-2.19976],7],[[248.93207,92.5391],[-9.94186,-1.25564],[0,0],7],[[251.05627,95.32988],[0.30345,-2.48069],[-0.00458,0.03742],7],[[251.0411,95.44026],[0.00553,-0.03616],[0.00673,0.03557],7],[[251.05057,95.49549],[0,0],[0.19554,1.39924],7],[[251.66823,99.64613],[-0.20096,-1.3741],[2.94956,-1.22226],7],[[260.38363,95.80561],[-2.96404,1.23507],[0,-0.31931],7],[[260.38363,95.0198],[0,0.19689],[0,0],7],[[261.65498,92.77035],[-1.27135,0.63354],[-0.44453,-0.55751],7],[[261.45344,90.17014],[-0.57541,1.17596],[0.08062,-0.16477],7],[[261.71181,89.72869],[-0.09119,0.13013],[-2.64634,-2.45898],7]],&quot;closed&quot;:true}]}" fill="#ffde00" stroke="none" stroke-width="0.5" stroke-linecap="butt"/><path d="M265.2295,101.28027l-0.0027,-2.53172c0,-0.23785 0.00065,-0.48136 0.00065,-0.71921c0.04638,-0.24836 0.05361,-0.53157 0.00147,-0.83912c0,-0.72837 0.00607,-1.46961 0.00607,-2.19798c0,0 0.0014,-0.20395 -0.05476,-0.49303c3.49044,0.99125 7.66205,1.0834 11.07795,0.50029c0.53678,-0.09163 0.862,-0.95191 1.39886,-0.86075c0.44091,0.07487 -0.84036,0.49999 -0.98188,0.93321c-0.34526,1.05694 -0.25389,2.23568 -0.3958,3.34047c-0.08813,0.68613 -0.35807,5.14993 -1.49667,5.59036c-1.23714,0.47854 -3.06711,-1.07585 -3.90042,-1.36013c-1.74332,-0.59473 -3.73508,-1.04391 -5.65278,-1.3624z" data-paper-data="{&quot;noHover&quot;:false,&quot;origItem&quot;:[&quot;Path&quot;,{&quot;applyMatrix&quot;:true,&quot;segments&quot;:[[[274.7623,188.60168],[-3.48665,-1.18947],[1.66661,0.56856]],[[282.49077,191.33782],[-2.47428,0.95709],[2.27718,-0.88085]],[[285.44123,180.25417],[-0.17627,1.37227],[0.28382,-2.20959]],[[286.25275,173.62017],[-0.69052,2.11389],[0.28304,-0.86645]],[[288.21755,171.7551],[0.88182,0.14974],[-1.0737,-0.18233]],[[285.42191,173.47909],[1.07355,-0.18326],[-6.83181,1.16622]],[[263.42259,172.47256],[6.98087,1.98251],[0.11233,0.57816]],[[263.53491,173.45459],[0,0],[0,1.45675]],[[263.53491,177.82484],[0,-1.45675],[0.10428,0.6151]],[[263.53491,179.49072],[0.09275,-0.49672],[0,0.4757]],[[263.53491,180.91784],[0,-0.4757],[0,0]],[[263.53491,185.94264],[0,0],[3.83539,0.63698]]],&quot;closed&quot;:true}]}" fill="#00b6ff" stroke="none" stroke-width="0.5" stroke-linecap="butt"/><path d="M247.42863,105.48863c0.01455,0.37946 0.0215,0.76416 0.02031,1.14702l-0.00034,0.70802c-0.60558,-0.3034 -1.20524,-0.30372 -1.20524,-0.30372l-0.4058,0.00024c-6.06462,0.01265 -10.71636,2.57475 -16.43136,4.24498c-0.53091,0.08978 -5.1934,0.86773 -5.27753,0.85858c-1.58753,-0.17261 -1.83859,-2.69422 -2.7568,-4.02876c-0.48654,-0.70713 -2.53847,-4.3597 -4.42066,-6.12006c1.13095,-0.13555 2.23998,-0.56525 3.35731,-0.81854c1.83671,-0.41637 3.66638,-0.93551 5.52584,-1.22808c6.95601,-1.09446 13.54458,-3.10083 20.57894,-2.65812c0.20718,1.36895 0.43784,2.73586 0.62541,4.09349c-0.44565,0.3641 -0.80688,0.96187 -0.80688,1.92375c0,1.23185 0.59417,1.86423 1.1968,2.1812z" data-paper-data="{&quot;noHover&quot;:false,&quot;origItem&quot;:[&quot;Path&quot;,{&quot;applyMatrix&quot;:true,&quot;segments&quot;:[[[225.34564,190.03959],[0,2.4637],[0,-1.92376]],[[226.96129,186.20404],[-0.8913,0.7282],[-0.37514,-2.71526]],[[225.71937,178.0415],[0.41435,2.73791],[-14.06872,-0.88541]],[[184.73047,183.37128],[13.91201,-2.18892],[-3.71892,0.58514]],[[173.69446,185.79603],[3.67343,-0.83274],[-2.23466,0.50658]],[[166.98241,187.42219],[2.2619,-0.2711],[3.76439,3.52071]],[[175.82056,199.61473],[-0.97307,-1.41426],[1.83643,2.66909]],[[181.31226,207.63461],[-3.17505,-0.34522],[0.16827,0.0183]],[[191.83287,205.89324],[-1.06181,0.17955],[11.43,-3.34046]],[[224.5581,197.47834],[-12.12924,0.02531],[0,0]],[225.36962,197.47834],[[227.78019,198.08514],[-1.21116,-0.6068],[0,0]],[[227.78019,196.67359],[0,0],[0.00237,-0.76573]],[[227.73889,194.38696],[0.0291,0.75893],[-1.20525,-0.63394]]],&quot;closed&quot;:true}]}" fill="#00b6ff" stroke="none" stroke-width="0.5" stroke-linecap="butt"/></g></g></svg>